<svg version="1.1" id="Layer_1" xmlns="http://www.w3.org/2000/svg" xmlns:xlink="http://www.w3.org/1999/xlink" x="0px" y="0px"
	 width="100%" viewBox="0 0 500 500" enable-background="new 0 0 500 500" xml:space="preserve">
<path fill="#FEFFFF" opacity="1.000000" stroke="none" 
	d="
M1.000000,245.000000 
	C1.000000,163.684174 1.000000,82.368347 1.000000,1.026258 
	C167.613281,1.026258 334.226593,1.026258 500.919922,1.026258 
	C500.919922,167.577377 500.919922,334.154816 500.919922,500.866119 
	C334.333405,500.866119 167.666718,500.866119 1.000018,500.870789 
	C1.000000,416.560333 1.000000,332.245178 1.344209,247.536850 
	C8.404182,258.618164 15.085427,270.113159 21.881079,281.540131 
	C22.695473,282.909515 24.131340,283.909363 25.279154,285.080475 
	C25.700823,284.698059 26.122490,284.315613 26.544159,283.933197 
	C19.183146,271.346466 11.859621,258.737305 4.372989,246.225754 
	C3.896534,245.429489 2.153705,245.391006 1.000000,245.000000 
M276.907623,275.294342 
	C276.587921,269.167847 276.268219,263.041382 276.885498,256.775116 
	C280.202942,256.689026 283.520508,256.528076 286.837830,256.532318 
	C293.926147,256.541412 294.354431,255.740952 294.085480,263.325592 
	C293.972229,266.517761 294.664734,269.573029 298.522705,269.956970 
	C301.811401,270.284271 305.253235,270.480164 308.440979,269.826050 
	C310.057404,269.494415 312.246429,267.292572 312.464874,265.701263 
	C313.070129,261.292175 312.878815,256.756622 312.743805,252.278854 
	C312.719604,251.477386 311.601807,250.287003 310.746552,250.001022 
	C305.251312,248.163513 299.688507,246.527908 293.607330,244.339432 
	C287.747040,242.208176 281.886749,240.076935 276.016937,237.017181 
	C276.366669,225.049469 276.716370,213.081741 277.094269,200.632233 
	C277.094269,200.632233 277.143341,200.152115 277.650116,199.705475 
	C280.214172,194.622192 284.286346,191.099594 289.937714,190.876663 
	C299.621979,190.494644 309.335754,190.861023 319.642365,191.248428 
	C327.824585,194.451172 331.217255,200.739441 331.244476,209.215393 
	C331.294189,224.690842 332.925934,221.320511 319.278564,221.958801 
	C314.285370,222.192322 312.449371,220.766006 312.754761,215.579468 
	C313.111420,209.522049 311.287109,208.096466 305.035492,208.021820 
	C303.205383,207.999954 301.138458,207.511276 299.602203,208.190857 
	C297.564453,209.092255 294.555969,210.798065 294.404388,212.390457 
	C293.983826,216.807724 294.809265,221.346909 295.228699,225.829834 
	C295.247192,226.027359 296.116058,226.150452 296.591583,226.299347 
	C305.309448,229.029663 314.027771,231.758621 323.321167,234.888748 
	C329.166962,235.841171 332.149200,239.098145 331.425110,246.085770 
	C331.394409,253.666550 331.363708,261.247345 331.020721,269.537811 
	C331.068726,270.530762 331.116730,271.523712 331.164734,272.516663 
	C331.417114,272.513550 331.669464,272.510437 331.921814,272.507355 
	C332.201385,271.293915 332.480957,270.080475 332.946228,268.121307 
	C334.752533,260.425964 336.558838,252.730606 338.777313,244.446228 
	C340.517120,236.938431 342.256927,229.430649 344.376343,221.273300 
	C346.634979,212.285950 348.972748,203.317352 351.108795,194.300964 
	C351.842712,191.202942 353.329285,189.854950 356.613403,190.007278 
	C360.744904,190.198914 364.896881,189.950485 369.865082,190.023834 
	C374.535156,189.228027 376.066223,191.707626 377.068787,195.913544 
	C380.982239,212.331375 385.253571,228.663925 389.364105,245.892014 
	C391.262634,253.483307 393.161133,261.074615 395.059662,268.665894 
	C395.355774,268.616333 395.651917,268.566742 395.948029,268.517151 
	C395.948029,260.684723 395.948029,252.852325 396.077667,244.087631 
	C396.086517,229.934967 396.047028,215.782043 396.118256,201.629700 
	C396.184937,188.383972 394.458588,190.171265 407.892853,190.069656 
	C415.170807,190.014618 415.173798,190.065201 415.175812,197.578781 
	C415.178467,207.446167 415.176483,217.313538 415.176483,227.180923 
	C421.135986,219.000244 425.948151,210.514664 430.982117,202.162735 
	C440.087677,187.055588 434.728729,190.458786 451.950958,190.091125 
	C457.424316,189.974274 458.033417,191.118088 455.401642,195.762741 
	C449.578308,206.039948 444.277130,216.672134 437.696350,226.440994 
	C433.042847,233.348862 433.189209,238.983353 438.239960,245.775772 
	C442.322083,253.743484 446.373901,261.726929 450.497559,269.673065 
	C453.011139,274.516602 454.504700,281.203186 458.520630,283.592468 
	C462.734467,286.099518 469.413147,284.543396 475.016510,284.614838 
	C481.871307,284.702240 488.728058,284.635651 496.313080,284.635651 
	C490.601624,274.898651 484.764526,266.346893 480.395813,257.101288 
	C476.130066,248.073669 470.731598,242.612320 460.088043,243.913727 
	C459.490997,232.958893 458.878998,222.004822 458.323761,211.047867 
	C458.276398,210.113892 458.496704,209.125397 458.784485,208.223389 
	C459.529694,205.887390 460.943573,203.618271 461.080719,201.263626 
	C461.419159,195.452454 461.191681,189.608307 461.191681,183.777420 
	C461.191681,176.715836 461.191681,169.654236 461.191681,161.839783 
	C456.475281,164.467377 452.591217,166.631256 448.401398,168.965469 
	C430.014862,119.893593 399.052917,81.534271 353.430695,55.731083 
	C307.723053,29.879587 258.791168,22.083464 207.364929,32.128872 
	C124.163239,48.381180 65.979988,111.537079 47.653938,175.853165 
	C48.667728,175.925537 49.648785,176.055618 50.629967,176.056595 
	C64.790695,176.070328 78.952499,176.161606 93.111465,176.003220 
	C96.836349,175.961578 98.261017,177.257706 97.984627,180.944458 
	C97.766197,183.858002 97.940697,186.800995 97.940697,190.085739 
	C111.262070,190.085739 123.865440,190.085739 136.884521,190.742767 
	C146.006546,193.344742 150.326370,198.572556 150.820343,208.116241 
	C151.126724,214.035690 151.040604,219.975464 150.995560,226.802872 
	C151.044815,229.216629 151.094070,231.630386 150.995819,234.904694 
	C150.753403,238.265503 150.510986,241.626312 149.953171,245.641724 
	C148.243286,248.413788 146.511932,251.172943 144.835800,253.965271 
	C144.290680,254.873413 143.328552,255.994293 143.510422,256.803619 
	C145.204056,264.339813 147.105621,271.829254 148.946915,279.332245 
	C149.219376,279.296967 149.491821,279.261658 149.764282,279.226379 
	C152.477737,267.821228 155.191193,256.416077 158.201920,244.308533 
	C159.453918,238.875839 160.705933,233.443146 162.463028,227.453629 
	C163.008514,224.645828 163.554001,221.838013 164.535645,218.426849 
	C165.769073,213.618240 166.967499,208.800323 168.246307,204.003815 
	C169.393967,199.699249 169.375610,193.957474 172.185638,191.544464 
	C174.905548,189.208862 180.575958,190.309204 185.842300,190.023544 
	C186.841339,190.035187 187.863632,190.190842 188.835495,190.034073 
	C193.566620,189.270813 195.890579,191.231354 196.574203,195.987213 
	C197.066895,199.414810 198.311401,202.734360 199.196960,206.858627 
	C202.452393,219.573181 205.707825,232.287735 208.905548,245.832672 
	C210.675598,253.006882 212.445663,260.181091 214.215714,267.355286 
	C214.651917,267.265167 215.088120,267.175079 215.524323,267.084961 
	C215.524323,259.710815 215.524323,252.336655 215.736496,244.419128 
	C215.598587,243.874878 215.460678,243.330612 215.628098,241.926102 
	C215.637970,227.314667 215.647842,212.703232 215.846939,197.213257 
	C215.783661,190.054718 215.783661,190.061478 223.115433,190.054459 
	C225.078949,190.052582 227.042404,189.995667 229.653519,190.227158 
	C230.786697,191.809906 232.142685,193.279205 233.015976,194.994278 
	C237.752182,204.295776 242.369110,213.658020 247.113922,223.683487 
	C248.292603,225.851425 249.471268,228.019348 250.812500,230.903687 
	C252.900711,235.265625 254.988922,239.627563 257.663666,245.214676 
	C257.663666,237.811737 257.663666,231.936401 257.809296,225.162689 
	C257.753510,222.729462 257.697723,220.296234 257.807098,216.957336 
	C257.820770,210.488983 257.839813,204.020615 257.846741,197.552261 
	C257.854736,190.071274 257.852234,189.957138 265.388580,190.098083 
	C275.836823,190.293442 275.724640,187.549103 275.028381,201.564957 
	C275.136169,213.815170 275.243927,226.065384 275.356934,239.179153 
	C275.467621,241.195374 275.578308,243.211578 275.505493,246.087692 
	C275.482574,249.601227 275.459625,253.114761 275.171844,257.585327 
	C275.234406,263.825623 275.296967,270.065918 275.382568,277.155731 
	C275.524658,279.691589 275.666748,282.227478 275.446564,285.582794 
	C271.958344,289.959320 261.401672,288.911438 258.071533,283.176941 
	C251.736954,270.434998 245.402359,257.693085 238.990402,244.233902 
	C237.316818,240.846542 235.643234,237.459198 233.466492,233.053452 
	C233.466492,238.069763 233.466492,241.665436 233.360931,246.157623 
	C233.485886,259.010071 233.610840,271.862488 233.373764,285.537079 
	C232.012756,286.357971 230.670609,287.850311 229.287628,287.889099 
	C221.233505,288.115295 213.163223,288.171265 205.114655,287.861908 
	C203.422852,287.796875 201.798935,285.966003 200.197372,284.122131 
	C199.157013,279.763336 198.253571,275.363922 196.979752,271.074432 
	C196.662292,270.005432 195.168640,268.556305 194.182968,268.530548 
	C186.243607,268.323059 178.296463,268.414307 170.115204,268.414307 
	C168.806488,274.142242 167.588974,279.471008 166.022522,285.561127 
	C164.609421,286.373932 163.214005,287.851837 161.780304,287.890015 
	C153.382812,288.113373 144.970535,288.163086 136.577805,287.863556 
	C134.892685,287.803406 133.270355,285.983734 131.728424,284.099182 
	C129.715179,275.705566 127.701927,267.311981 125.659348,258.796082 
	C121.473000,258.796082 117.531494,258.796082 113.425674,258.796082 
	C113.425674,265.970032 113.425674,272.908447 113.187828,280.723358 
	C112.552895,283.091949 112.213219,287.354187 111.232811,287.507111 
	C106.549759,288.237274 101.685867,287.983978 96.905022,287.728943 
	C96.148026,287.688538 95.486839,285.852051 94.936943,283.942535 
	C94.919739,260.646851 94.902527,237.351166 95.013504,213.120453 
	C95.013504,207.042892 95.013504,200.965317 95.013504,194.873962 
	C89.452049,194.873962 84.570595,194.873962 79.804535,194.873962 
	C79.804535,204.206955 79.804535,213.114029 79.586075,222.852295 
	C79.614975,236.194305 79.643875,249.536316 79.405563,263.573029 
	C79.493599,264.054047 79.581635,264.535034 79.421463,265.864960 
	C79.412842,267.939484 79.404213,270.014008 79.162468,272.770966 
	C79.260445,273.230194 79.358421,273.689392 79.398346,275.035522 
	C79.529739,278.266724 79.661140,281.497955 79.426079,285.554291 
	C76.888466,288.964172 62.661163,289.168396 60.265533,285.818237 
	C60.082516,285.562286 60.034008,285.210114 60.149654,284.057587 
	C60.084873,281.716278 60.020088,279.374939 60.352192,276.348633 
	C60.238308,272.896057 60.124424,269.443481 60.185551,265.068329 
	C60.137634,254.693359 60.089718,244.318405 60.203693,233.024445 
	C60.203693,220.441193 60.203693,207.857956 60.203693,195.029160 
	C53.775677,195.029160 48.043980,195.029160 42.199249,195.029160 
	C38.119110,211.522491 37.360947,228.075729 36.911163,244.884705 
	C34.073860,244.884705 31.236557,244.884705 27.881048,244.884705 
	C31.923107,252.119949 35.511612,258.543335 38.993202,265.818604 
	C39.717243,270.931427 40.441284,276.044220 40.537861,280.583405 
	C34.404808,270.129211 28.082661,259.779083 22.241867,249.164093 
	C20.213581,245.477905 17.967216,244.048172 13.607840,245.428802 
	C14.405099,246.910278 15.127811,248.349640 15.935887,249.739365 
	C21.694366,259.642761 27.632551,269.446655 33.156860,279.478607 
	C35.225353,283.234955 37.521484,285.564148 42.293484,285.471832 
	C42.520073,286.270142 42.775654,287.061462 42.969120,287.867706 
	C54.231846,334.806549 78.408073,373.796936 116.076630,403.909149 
	C159.789841,438.853455 209.778732,454.473083 265.803650,450.175262 
	C290.431885,448.285980 314.029388,442.489197 336.366089,431.923126 
	C392.717773,405.266785 430.952209,362.480835 450.476105,303.170532 
	C452.052063,298.383057 453.199402,293.454529 454.709442,288.001007 
	C450.540924,288.001007 447.332092,288.390625 444.273743,287.879578 
	C441.758942,287.459381 439.422791,285.970062 436.972046,284.235016 
	C431.576355,273.502655 426.180695,262.770294 420.267578,251.008728 
	C418.292084,255.644531 415.753754,259.168488 415.426483,262.887024 
	C414.789734,270.123047 415.392639,277.468140 415.174683,285.572357 
	C413.761932,286.381256 412.366669,287.852234 410.933624,287.890076 
	C402.516388,288.112122 394.084320,288.165436 385.672485,287.858276 
	C384.019470,287.797943 382.433197,285.909607 380.858215,284.095520 
	C379.516235,278.857361 378.174225,273.619232 376.838867,268.406952 
	C368.696289,268.406952 361.200745,268.298370 353.714630,268.514526 
	C352.476624,268.550262 350.499817,269.784698 350.198578,270.844421 
	C348.888031,275.454742 348.070831,280.205292 346.628876,285.548187 
	C345.705200,286.354828 344.813385,287.811523 343.852478,287.858612 
	C338.995544,288.096710 334.120605,287.968140 328.527832,287.968140 
	C328.986298,285.679352 329.290924,284.158661 329.872253,282.144592 
	C329.698273,281.191620 329.524323,280.238647 329.078583,277.797211 
	C327.560425,280.417603 326.794525,281.739532 325.753632,283.710999 
	C323.692841,284.760223 321.720398,286.456177 319.556641,286.751831 
	C307.186462,288.442017 294.768372,289.845764 282.445221,284.388306 
	C280.580200,281.641632 278.715179,278.894958 276.907623,275.294342 
M356.635437,245.641266 
	C356.159393,247.667175 355.683319,249.693069 355.155060,251.941162 
	C361.024872,251.941162 366.439423,251.941162 372.383057,251.941162 
	C371.826843,249.464447 371.332428,247.262955 370.804840,244.273056 
	C368.585236,234.834091 366.365631,225.395126 364.146027,215.956161 
	C363.840363,215.986176 363.534729,216.016190 363.229065,216.046188 
	C361.152069,225.692429 359.075043,235.338669 356.635437,245.641266 
M190.123840,244.133087 
	C188.001984,234.775085 185.880142,225.417068 183.758301,216.059067 
	C183.473572,216.028229 183.188843,215.997391 182.904114,215.966553 
	C180.710983,225.645828 178.517868,235.325089 176.029251,245.783798 
	C175.616974,247.708832 175.204697,249.633865 174.725525,251.871216 
	C180.615204,251.871216 186.152054,251.871216 192.107025,251.871216 
	C191.363037,249.340912 190.719315,247.151566 190.123840,244.133087 
M132.785355,228.389404 
	C132.778122,223.731033 132.826752,219.071655 132.743942,214.414627 
	C132.688873,211.316940 131.623840,208.575684 128.107147,208.378830 
	C123.208916,208.104614 118.283859,208.309784 113.412567,208.309784 
	C113.412567,219.246384 113.412567,229.635864 113.412567,239.995483 
	C132.904831,241.513168 133.205643,239.445358 132.785355,228.389404 
M214.544937,269.540741 
	C214.841614,270.360199 215.138290,271.179657 215.434967,271.999115 
	C215.646088,271.952423 215.857208,271.905731 216.068314,271.859070 
	C215.922211,270.446533 215.776108,269.033997 215.630020,267.621490 
	C215.187378,268.014038 214.744720,268.406586 214.544937,269.540741 
z"/>
<path fill="#1A6872" opacity="1.000000" stroke="none" 
	d="
M1.000000,245.333328 
	C2.153705,245.391006 3.896534,245.429489 4.372989,246.225754 
	C11.859621,258.737305 19.183146,271.346466 26.544159,283.933197 
	C26.122490,284.315613 25.700823,284.698059 25.279154,285.080475 
	C24.131340,283.909363 22.695473,282.909515 21.881079,281.540131 
	C15.085427,270.113159 8.404182,258.618164 1.344209,247.071838 
	C1.000000,246.555557 1.000000,246.111099 1.000000,245.333328 
z"/>
<path fill="#5DBF91" opacity="1.000000" stroke="none" 
	d="
M59.922981,284.902679 
	C60.034008,285.210114 60.082516,285.562286 60.265533,285.818237 
	C62.661163,289.168396 76.888466,288.964172 79.981995,285.183685 
	C82.257790,284.813080 83.977669,284.813080 87.326820,284.813080 
	C84.373383,280.428558 82.199135,277.200806 80.008698,273.715820 
	C79.793526,273.001953 79.594559,272.545227 79.395584,272.088531 
	C79.404213,270.014008 79.412842,267.939484 79.732597,265.398529 
	C80.043732,264.932098 80.418114,264.844147 80.648170,265.082520 
	C84.051674,270.747253 87.099739,276.253723 90.481422,281.547089 
	C91.395737,282.978271 93.320435,283.763977 94.781357,284.845978 
	C95.486839,285.852051 96.148026,287.688538 96.905022,287.728943 
	C101.685867,287.983978 106.549759,288.237274 111.232811,287.507111 
	C112.213219,287.354187 112.552895,283.091949 113.572037,280.503571 
	C115.330170,284.218079 118.170120,285.286377 122.130447,284.918793 
	C125.264572,284.627869 128.454132,284.934235 131.619080,284.975372 
	C133.270355,285.983734 134.892685,287.803406 136.577805,287.863556 
	C144.970535,288.163086 153.382812,288.113373 161.780304,287.890015 
	C163.214005,287.851837 164.609421,286.373932 166.640640,285.183899 
	C178.220413,284.854065 189.182068,284.901459 200.143723,284.948822 
	C201.798935,285.966003 203.422852,287.796875 205.114655,287.861908 
	C213.163223,288.171265 221.233505,288.115295 229.287628,287.889099 
	C230.670609,287.850311 232.012756,286.357971 233.970215,285.161377 
	C236.729416,284.804016 238.896698,284.921112 241.053986,284.821564 
	C246.793503,284.556702 252.528732,284.198486 258.265656,283.877411 
	C261.401672,288.911438 271.958344,289.959320 275.999512,285.222260 
	C278.599518,284.897064 280.646606,284.932404 282.693665,284.967743 
	C294.768372,289.845764 307.186462,288.442017 319.556641,286.751831 
	C321.720398,286.456177 323.692841,284.760223 326.307617,283.211243 
	C327.772888,282.686951 328.684204,282.662476 329.595520,282.638000 
	C329.290924,284.158661 328.986298,285.679352 328.527832,287.968140 
	C334.120605,287.968140 338.995544,288.096710 343.852478,287.858612 
	C344.813385,287.811523 345.705200,286.354828 347.315277,285.212891 
	C358.939850,284.873199 369.877991,284.868774 380.816162,284.864349 
	C382.433197,285.909607 384.019470,287.797943 385.672485,287.858276 
	C394.084320,288.165436 402.516388,288.112122 410.933624,287.890076 
	C412.366669,287.852234 413.761932,286.381256 415.764740,285.175018 
	C423.239014,284.836639 430.123230,284.895630 437.007446,284.954590 
	C439.422791,285.970062 441.758942,287.459381 444.273743,287.879578 
	C447.332092,288.390625 450.540924,288.001007 454.709442,288.001007 
	C453.199402,293.454529 452.052063,298.383057 450.476105,303.170532 
	C430.952209,362.480835 392.717773,405.266785 336.366089,431.923126 
	C314.029388,442.489197 290.431885,448.285980 265.803650,450.175262 
	C209.778732,454.473083 159.789841,438.853455 116.076630,403.909149 
	C78.408073,373.796936 54.231846,334.806549 42.969120,287.867706 
	C42.775654,287.061462 42.520073,286.270142 42.113274,284.820129 
	C41.677147,283.164612 41.421238,282.160828 41.165329,281.157043 
	C40.441284,276.044220 39.717243,270.931427 39.305809,265.607422 
	C41.864971,269.224762 44.560276,272.865997 46.254555,276.925110 
	C48.901592,283.266785 53.105667,286.111572 59.922981,284.902679 
z"/>
<path fill="#5DBF91" opacity="1.000000" stroke="none" 
	d="
M319.037140,190.913162 
	C309.335754,190.861023 299.621979,190.494644 289.937714,190.876663 
	C284.286346,191.099594 280.214172,194.622192 277.341614,199.453156 
	C277.033112,186.922684 277.033112,174.644516 277.033112,161.516251 
	C266.568787,167.592896 257.239594,172.942001 247.980850,178.410431 
	C241.605286,182.175995 235.327423,186.106979 229.005890,189.964020 
	C227.042404,189.995667 225.078949,190.052582 223.115433,190.054459 
	C215.783661,190.061478 215.783661,190.054718 215.401245,197.646027 
	C209.710571,200.753235 204.465561,203.427673 199.220581,206.102112 
	C198.311401,202.734360 197.066895,199.414810 196.574203,195.987213 
	C195.890579,191.231354 193.566620,189.270813 188.835495,190.034073 
	C187.863632,190.190842 186.841339,190.035187 185.416000,189.500504 
	C184.989700,180.113007 184.989700,171.248550 184.989700,161.498734 
	C177.543961,165.778229 171.053101,169.423645 164.646362,173.211349 
	C155.222366,178.782883 145.858368,184.455933 136.468811,190.085739 
	C123.865440,190.085739 111.262070,190.085739 97.940697,190.085739 
	C97.940697,186.800995 97.766197,183.858002 97.984627,180.944458 
	C98.261017,177.257706 96.836349,175.961578 93.111465,176.003220 
	C78.952499,176.161606 64.790695,176.070328 50.629967,176.056595 
	C49.648785,176.055618 48.667728,175.925537 47.653938,175.853165 
	C65.979988,111.537079 124.163239,48.381180 207.364929,32.128872 
	C258.791168,22.083464 307.723053,29.879587 353.430695,55.731083 
	C399.052917,81.534271 430.014862,119.893593 448.401398,168.965469 
	C452.591217,166.631256 456.475281,164.467377 461.191681,161.839783 
	C461.191681,169.654236 461.191681,176.715836 461.191681,183.777420 
	C461.191681,189.608307 461.419159,195.452454 461.080719,201.263626 
	C460.943573,203.618271 459.529694,205.887390 458.784485,208.223389 
	C458.496704,209.125397 458.276398,210.113892 458.323761,211.047867 
	C458.878998,222.004822 459.490997,232.958893 459.639099,244.420197 
	C452.177582,244.979568 445.165009,245.032455 438.152405,245.085358 
	C433.189209,238.983353 433.042847,233.348862 437.696350,226.440994 
	C444.277130,216.672134 449.578308,206.039948 455.401642,195.762741 
	C458.033417,191.118088 457.424316,189.974274 451.950958,190.091125 
	C434.728729,190.458786 440.087677,187.055588 430.982117,202.162735 
	C425.948151,210.514664 421.135986,219.000244 415.176483,227.180923 
	C415.176483,217.313538 415.178467,207.446167 415.175812,197.578781 
	C415.173798,190.065201 415.170807,190.014618 407.892853,190.069656 
	C394.458588,190.171265 396.184937,188.383972 396.118256,201.629700 
	C396.047028,215.782043 396.086517,229.934967 395.548157,244.533325 
	C393.143005,244.995422 391.267426,245.011795 389.391815,245.028168 
	C385.253571,228.663925 380.982239,212.331375 377.068787,195.913544 
	C376.066223,191.707626 374.535156,189.228027 369.447357,189.497162 
	C369.029633,180.256577 369.029633,171.542648 369.029633,161.561172 
	C351.718811,171.724854 335.377960,181.319000 319.037140,190.913162 
z"/>
<path fill="#47A9B9" opacity="1.000000" stroke="none" 
	d="
M319.339752,191.080795 
	C335.377960,181.319000 351.718811,171.724854 369.029633,161.561172 
	C369.029633,171.542648 369.029633,180.256577 369.034821,189.431213 
	C364.896881,189.950485 360.744904,190.198914 356.613403,190.007278 
	C353.329285,189.854950 351.842712,191.202942 351.108795,194.300964 
	C348.972748,203.317352 346.634979,212.285950 343.828369,221.653717 
	C336.435577,226.185379 329.590759,230.336609 322.745972,234.487854 
	C314.027771,231.758621 305.309448,229.029663 296.591583,226.299347 
	C296.116058,226.150452 295.247192,226.027359 295.228699,225.829834 
	C294.809265,221.346909 293.983826,216.807724 294.404388,212.390457 
	C294.555969,210.798065 297.564453,209.092255 299.602203,208.190857 
	C301.138458,207.511276 303.205383,207.999954 305.035492,208.021820 
	C311.287109,208.096466 313.111420,209.522049 312.754761,215.579468 
	C312.449371,220.766006 314.285370,222.192322 319.278564,221.958801 
	C332.925934,221.320511 331.294189,224.690842 331.244476,209.215393 
	C331.217255,200.739441 327.824585,194.451172 319.339752,191.080795 
z"/>
<path fill="#075B66" opacity="1.000000" stroke="none" 
	d="
M438.196167,245.430557 
	C445.165009,245.032455 452.177582,244.979568 459.664825,244.877289 
	C470.731598,242.612320 476.130066,248.073669 480.395813,257.101288 
	C484.764526,266.346893 490.601624,274.898651 496.313080,284.635651 
	C488.728058,284.635651 481.871307,284.702240 475.016510,284.614838 
	C469.413147,284.543396 462.734467,286.099518 458.520630,283.592468 
	C454.504700,281.203186 453.011139,274.516602 450.497559,269.673065 
	C446.373901,261.726929 442.322083,253.743484 438.196167,245.430557 
z"/>
<path fill="#039A80" opacity="1.000000" stroke="none" 
	d="
M229.329712,190.095581 
	C235.327423,186.106979 241.605286,182.175995 247.980850,178.410431 
	C257.239594,172.942001 266.568787,167.592896 277.033112,161.516251 
	C277.033112,174.644516 277.033112,186.922684 277.088226,199.676483 
	C277.143341,200.152115 277.094269,200.632233 276.766052,200.990540 
	C276.067871,201.100342 275.697968,200.851822 275.328033,200.603317 
	C275.724640,187.549103 275.836823,190.293442 265.388580,190.098083 
	C257.852234,189.957138 257.854736,190.071274 257.846741,197.552261 
	C257.839813,204.020615 257.820770,210.488983 257.398376,217.488419 
	C253.668777,219.679443 250.347946,221.339371 247.027130,222.999329 
	C242.369110,213.658020 237.752182,204.295776 233.015976,194.994278 
	C232.142685,193.279205 230.786697,191.809906 229.329712,190.095581 
z"/>
<path fill="#035964" opacity="1.000000" stroke="none" 
	d="
M136.676666,190.414246 
	C145.858368,184.455933 155.222366,178.782883 164.646362,173.211349 
	C171.053101,169.423645 177.543961,165.778229 184.989700,161.498734 
	C184.989700,171.248550 184.989700,180.113007 184.970062,189.438934 
	C180.575958,190.309204 174.905548,189.208862 172.185638,191.544464 
	C169.375610,193.957474 169.393967,199.699249 168.246307,204.003815 
	C166.967499,208.800323 165.769073,213.618240 163.968155,218.797028 
	C159.310669,221.413513 155.220673,223.659821 151.130661,225.906128 
	C151.040604,219.975464 151.126724,214.035690 150.820343,208.116241 
	C150.326370,198.572556 146.006546,193.344742 136.676666,190.414246 
z"/>
<path fill="#5DBF91" opacity="1.000000" stroke="none" 
	d="
M37.760498,244.735535 
	C37.360947,228.075729 38.119110,211.522491 42.199249,195.029160 
	C48.043980,195.029160 53.775677,195.029160 60.203693,195.029160 
	C60.203693,207.857956 60.203693,220.441193 59.771702,233.545868 
	C54.308372,236.984726 49.344227,240.028641 44.211391,242.755005 
	C42.260765,243.791107 39.922230,244.096893 37.760498,244.735535 
z"/>
<path fill="#045A64" opacity="1.000000" stroke="none" 
	d="
M94.859146,284.394257 
	C93.320435,283.763977 91.395737,282.978271 90.481422,281.547089 
	C87.099739,276.253723 84.051674,270.747253 80.586166,264.822418 
	C80.086998,263.842102 79.879883,263.360199 79.672768,262.878326 
	C79.643875,249.536316 79.614975,236.194305 80.034920,222.319092 
	C85.284279,219.209076 90.084793,216.632278 94.885315,214.055481 
	C94.902527,237.351166 94.919739,260.646851 94.859146,284.394257 
z"/>
<path fill="#055B65" opacity="1.000000" stroke="none" 
	d="
M37.335831,244.810120 
	C39.922230,244.096893 42.260765,243.791107 44.211391,242.755005 
	C49.344227,240.028641 54.308372,236.984726 59.690758,234.005371 
	C60.089718,244.318405 60.137634,254.693359 59.829384,265.321655 
	C56.881310,261.163879 54.066860,256.864960 51.768543,252.305862 
	C49.959972,248.718292 47.532951,248.387039 43.354725,249.704178 
	C49.061043,259.098450 54.508175,268.066040 59.955307,277.033630 
	C60.020088,279.374939 60.084873,281.716278 60.036316,284.480133 
	C53.105667,286.111572 48.901592,283.266785 46.254555,276.925110 
	C44.560276,272.865997 41.864971,269.224762 39.359268,265.181458 
	C35.511612,258.543335 31.923107,252.119949 27.881048,244.884705 
	C31.236557,244.884705 34.073860,244.884705 37.335831,244.810120 
z"/>
<path fill="#065B65" opacity="1.000000" stroke="none" 
	d="
M258.168579,283.527161 
	C252.528732,284.198486 246.793503,284.556702 241.053986,284.821564 
	C238.896698,284.921112 236.729416,284.804016 234.151245,284.750305 
	C233.610840,271.862488 233.485886,259.010071 233.805634,245.630890 
	C235.856140,245.053146 237.461960,245.002151 239.067780,244.951157 
	C245.402359,257.693085 251.736954,270.434998 258.168579,283.527161 
z"/>
<path fill="#065A65" opacity="1.000000" stroke="none" 
	d="
M275.436707,256.628296 
	C275.459625,253.114761 275.482574,249.601227 276.010010,245.572906 
	C282.392303,244.980728 288.270111,244.903366 294.147919,244.825989 
	C299.688507,246.527908 305.251312,248.163513 310.746552,250.001022 
	C311.601807,250.287003 312.719604,251.477386 312.743805,252.278854 
	C312.878815,256.756622 313.070129,261.292175 312.464874,265.701263 
	C312.246429,267.292572 310.057404,269.494415 308.440979,269.826050 
	C305.253235,270.480164 301.811401,270.284271 298.522705,269.956970 
	C294.664734,269.573029 293.972229,266.517761 294.085480,263.325592 
	C294.354431,255.740952 293.926147,256.541412 286.837830,256.532318 
	C283.520508,256.528076 280.202942,256.689026 276.334229,256.692688 
	C275.782959,256.610291 275.436707,256.628296 275.436707,256.628296 
z"/>
<path fill="#0A5E68" opacity="1.000000" stroke="none" 
	d="
M132.785339,228.868042 
	C133.205643,239.445358 132.904831,241.513168 113.412567,239.995483 
	C113.412567,229.635864 113.412567,219.246384 113.412567,208.309784 
	C118.283859,208.309784 123.208916,208.104614 128.107147,208.378830 
	C131.623840,208.575684 132.688873,211.316940 132.743942,214.414627 
	C132.826752,219.071655 132.778122,223.731033 132.785339,228.868042 
z"/>
<path fill="#039A80" opacity="1.000000" stroke="none" 
	d="
M199.208771,206.480377 
	C204.465561,203.427673 209.710571,200.753235 215.306641,198.085297 
	C215.647842,212.703232 215.637970,227.314667 215.185089,242.396622 
	C213.851898,243.548492 212.961731,244.229843 211.683594,244.936462 
	C210.518158,244.975235 209.740707,244.988770 208.963257,245.002304 
	C205.707825,232.287735 202.452393,219.573181 199.208771,206.480377 
z"/>
<path fill="#0D6069" opacity="1.000000" stroke="none" 
	d="
M200.170547,284.535461 
	C189.182068,284.901459 178.220413,284.854065 166.815125,284.803223 
	C167.588974,279.471008 168.806488,274.142242 170.115204,268.414307 
	C178.296463,268.414307 186.243607,268.323059 194.182968,268.530548 
	C195.168640,268.556305 196.662292,270.005432 196.979752,271.074432 
	C198.253571,275.363922 199.157013,279.763336 200.170547,284.535461 
z"/>
<path fill="#0D6069" opacity="1.000000" stroke="none" 
	d="
M380.837189,284.479919 
	C369.877991,284.868774 358.939850,284.873199 347.538025,284.891235 
	C348.070831,280.205292 348.888031,275.454742 350.198578,270.844421 
	C350.499817,269.784698 352.476624,268.550262 353.714630,268.514526 
	C361.200745,268.298370 368.696289,268.406952 376.838867,268.406952 
	C378.174225,273.619232 379.516235,278.857361 380.837189,284.479919 
z"/>
<path fill="#085D66" opacity="1.000000" stroke="none" 
	d="
M436.989746,284.594818 
	C430.123230,284.895630 423.239014,284.836639 415.918457,284.772888 
	C415.392639,277.468140 414.789734,270.123047 415.426483,262.887024 
	C415.753754,259.168488 418.292084,255.644531 420.267578,251.008728 
	C426.180695,262.770294 431.576355,273.502655 436.989746,284.594818 
z"/>
<path fill="#085D66" opacity="1.000000" stroke="none" 
	d="
M131.673752,284.537292 
	C128.454132,284.934235 125.264572,284.627869 122.130447,284.918793 
	C118.170120,285.286377 115.330170,284.218079 113.690956,280.065308 
	C113.425674,272.908447 113.425674,265.970032 113.425674,258.796082 
	C117.531494,258.796082 121.473000,258.796082 125.659348,258.796082 
	C127.701927,267.311981 129.715179,275.705566 131.673752,284.537292 
z"/>
<path fill="#67BE99" opacity="1.000000" stroke="none" 
	d="
M94.949409,213.587967 
	C90.084793,216.632278 85.284279,219.209076 80.144150,221.903503 
	C79.804535,213.114029 79.804535,204.206955 79.804535,194.873962 
	C84.570595,194.873962 89.452049,194.873962 95.013504,194.873962 
	C95.013504,200.965317 95.013504,207.042892 94.949409,213.587967 
z"/>
<path fill="#0D5F6A" opacity="1.000000" stroke="none" 
	d="
M40.851593,280.870239 
	C41.421238,282.160828 41.677147,283.164612 41.974442,284.450653 
	C37.521484,285.564148 35.225353,283.234955 33.156860,279.478607 
	C27.632551,269.446655 21.694366,259.642761 15.935887,249.739365 
	C15.127811,248.349640 14.405099,246.910278 13.607840,245.428802 
	C17.967216,244.048172 20.213581,245.477905 22.241867,249.164093 
	C28.082661,259.779083 34.404808,270.129211 40.851593,280.870239 
z"/>
<path fill="#0D5F6A" opacity="1.000000" stroke="none" 
	d="
M157.904648,245.010910 
	C155.191193,256.416077 152.477737,267.821228 149.764282,279.226379 
	C149.491821,279.261658 149.219376,279.296967 148.946915,279.332245 
	C147.105621,271.829254 145.204056,264.339813 143.510422,256.803619 
	C143.328552,255.994293 144.290680,254.873413 144.835800,253.965271 
	C146.511932,251.172943 148.243286,248.413788 150.531998,245.321167 
	C153.375427,245.004028 155.640045,245.007477 157.904648,245.010910 
z"/>
<path fill="#60C094" opacity="1.000000" stroke="none" 
	d="
M323.033569,234.688293 
	C329.590759,230.336609 336.435577,226.185379 343.638550,221.978485 
	C342.256927,229.430649 340.517120,236.938431 338.139557,244.708832 
	C335.538055,245.043869 333.574280,245.116287 331.610535,245.188721 
	C332.149200,239.098145 329.166962,235.841171 323.033569,234.688293 
z"/>
<path fill="#099C83" opacity="1.000000" stroke="none" 
	d="
M176.324738,245.004364 
	C178.517868,235.325089 180.710983,225.645828 182.904114,215.966553 
	C183.188843,215.997391 183.473572,216.028229 183.758301,216.059067 
	C185.880142,225.417068 188.001984,234.775085 189.632294,244.553741 
	C184.868744,244.984390 180.596741,244.994370 176.324738,245.004364 
z"/>
<path fill="#60C094" opacity="1.000000" stroke="none" 
	d="
M356.998047,244.984909 
	C359.075043,235.338669 361.152069,225.692429 363.229065,216.046188 
	C363.534729,216.016190 363.840363,215.986176 364.146027,215.956161 
	C366.365631,225.395126 368.585236,234.834091 370.368530,244.644379 
	C365.620850,245.005447 361.309448,244.995178 356.998047,244.984909 
z"/>
<path fill="#67BE99" opacity="1.000000" stroke="none" 
	d="
M60.153748,276.691132 
	C54.508175,268.066040 49.061043,259.098450 43.354725,249.704178 
	C47.532951,248.387039 49.959972,248.718292 51.768543,252.305862 
	C54.066860,256.864960 56.881310,261.163879 59.741882,265.782959 
	C60.124424,269.443481 60.238308,272.896057 60.153748,276.691132 
z"/>
<path fill="#039A80" opacity="1.000000" stroke="none" 
	d="
M158.053284,244.659729 
	C155.640045,245.007477 153.375427,245.004028 150.689697,244.993866 
	C150.510986,241.626312 150.753403,238.265503 151.379166,234.332840 
	C155.160980,231.844147 158.559448,229.927292 161.957932,228.010437 
	C160.705933,233.443146 159.453918,238.875839 158.053284,244.659729 
z"/>
<path fill="#0D5F6A" opacity="1.000000" stroke="none" 
	d="
M331.517822,245.637238 
	C333.574280,245.116287 335.538055,245.043869 337.933472,245.003357 
	C336.558838,252.730606 334.752533,260.425964 332.616669,268.447144 
	C331.963379,268.692505 331.645355,268.710876 331.333008,268.828125 
	C331.363708,261.247345 331.394409,253.666550 331.517822,245.637238 
z"/>
<path fill="#075B66" opacity="1.000000" stroke="none" 
	d="
M176.177002,245.394073 
	C180.596741,244.994370 184.868744,244.984390 189.608154,244.968323 
	C190.719315,247.151566 191.363037,249.340912 192.107025,251.871216 
	C186.152054,251.871216 180.615204,251.871216 174.725525,251.871216 
	C175.204697,249.633865 175.616974,247.708832 176.177002,245.394073 
z"/>
<path fill="#065A65" opacity="1.000000" stroke="none" 
	d="
M356.816742,245.313080 
	C361.309448,244.995178 365.620850,245.005447 370.385132,245.038589 
	C371.332428,247.262955 371.826843,249.464447 372.383057,251.941162 
	C366.439423,251.941162 361.024872,251.941162 355.155060,251.941162 
	C355.683319,249.693069 356.159393,247.667175 356.816742,245.313080 
z"/>
<path fill="#5DBF91" opacity="1.000000" stroke="none" 
	d="
M162.210480,227.732025 
	C158.559448,229.927292 155.160980,231.844147 151.452911,233.902557 
	C151.094070,231.630386 151.044815,229.216629 151.063110,226.354492 
	C155.220673,223.659821 159.310669,221.413513 163.750061,219.098724 
	C163.554001,221.838013 163.008514,224.645828 162.210480,227.732025 
z"/>
<path fill="#085D66" opacity="1.000000" stroke="none" 
	d="
M389.377960,245.460083 
	C391.267426,245.011795 393.143005,244.995422 395.483337,244.999481 
	C395.948029,252.852325 395.948029,260.684723 395.948029,268.517151 
	C395.651917,268.566742 395.355774,268.616333 395.059662,268.665894 
	C393.161133,261.074615 391.262634,253.483307 389.377960,245.460083 
z"/>
<path fill="#0D6069" opacity="1.000000" stroke="none" 
	d="
M208.934387,245.417480 
	C209.740707,244.988770 210.518158,244.975235 212.114685,244.952744 
	C213.797256,244.950012 214.660797,244.956253 215.524323,244.962494 
	C215.524323,252.336655 215.524323,259.710815 215.524323,267.084961 
	C215.088120,267.175079 214.651917,267.265167 214.215714,267.355286 
	C212.445663,260.181091 210.675598,253.006882 208.934387,245.417480 
z"/>
<path fill="#57BC97" opacity="1.000000" stroke="none" 
	d="
M247.070526,223.341400 
	C250.347946,221.339371 253.668777,219.679443 257.315765,217.941254 
	C257.697723,220.296234 257.753510,222.729462 257.459290,225.768784 
	C254.956192,227.645691 252.803070,228.916489 250.649948,230.187286 
	C249.471268,228.019348 248.292603,225.851425 247.070526,223.341400 
z"/>
<path fill="#57B0BE" opacity="1.000000" stroke="none" 
	d="
M250.731232,230.545486 
	C252.803070,228.916489 254.956192,227.645691 257.386475,226.217987 
	C257.663666,231.936401 257.663666,237.811737 257.663666,245.214676 
	C254.988922,239.627563 252.900711,235.265625 250.731232,230.545486 
z"/>
<path fill="#47A9B9" opacity="1.000000" stroke="none" 
	d="
M293.877625,244.582703 
	C288.270111,244.903366 282.392303,244.980728 276.101746,245.142944 
	C275.578308,243.211578 275.467621,241.195374 275.535828,238.679337 
	C275.714722,238.179520 276.026459,237.945679 276.026459,237.945679 
	C281.886749,240.076935 287.747040,242.208176 293.877625,244.582703 
z"/>
<path fill="#0D6069" opacity="1.000000" stroke="none" 
	d="
M80.024887,273.973022 
	C82.199135,277.200806 84.373383,280.428558 87.326820,284.813080 
	C83.977669,284.813080 82.257790,284.813080 80.165222,284.771118 
	C79.661140,281.497955 79.529739,278.266724 79.589813,274.613770 
	C79.781273,274.192047 80.024887,273.973022 80.024887,273.973022 
z"/>
<path fill="#6AADB0" opacity="1.000000" stroke="none" 
	d="
M239.029083,244.592529 
	C237.461960,245.002151 235.856140,245.053146 233.858398,245.182617 
	C233.466492,241.665436 233.466492,238.069763 233.466492,233.053452 
	C235.643234,237.459198 237.316818,240.846542 239.029083,244.592529 
z"/>
<path fill="#1A6872" opacity="1.000000" stroke="none" 
	d="
M282.569458,284.678040 
	C280.646606,284.932404 278.599518,284.897064 276.180664,284.812531 
	C275.666748,282.227478 275.524658,279.691589 275.621918,276.719604 
	C276.190918,276.238434 276.520538,276.193359 276.850189,276.148285 
	C278.715179,278.894958 280.580200,281.641632 282.569458,284.678040 
z"/>
<path fill="#B9E2DD" opacity="1.000000" stroke="none" 
	d="
M276.021698,237.481430 
	C276.026459,237.945679 275.714722,238.179520 275.533203,238.247559 
	C275.243927,226.065384 275.136169,213.815170 275.178223,201.084137 
	C275.697968,200.851822 276.067871,201.100342 276.751953,201.231445 
	C276.716370,213.081741 276.366669,225.049469 276.021698,237.481430 
z"/>
<path fill="#9CC1C5" opacity="1.000000" stroke="none" 
	d="
M276.878906,275.721313 
	C276.520538,276.193359 276.190918,276.238434 275.610382,276.294861 
	C275.296967,270.065918 275.234406,263.825623 275.304260,257.106812 
	C275.436707,256.628296 275.782959,256.610291 275.865723,256.762573 
	C276.268219,263.041382 276.587921,269.167847 276.878906,275.721313 
z"/>
<path fill="#FDFEFE" opacity="1.000000" stroke="none" 
	d="
M329.733887,282.391296 
	C328.684204,282.662476 327.772888,282.686951 326.445099,282.886475 
	C326.794525,281.739532 327.560425,280.417603 329.078583,277.797211 
	C329.524323,280.238647 329.698273,281.191620 329.733887,282.391296 
z"/>
<path fill="#5CAFA3" opacity="1.000000" stroke="none" 
	d="
M215.630402,244.690811 
	C214.660797,244.956253 213.797256,244.950012 212.502655,244.927490 
	C212.961731,244.229843 213.851898,243.548492 215.032410,242.826752 
	C215.460678,243.330612 215.598587,243.874878 215.630402,244.690811 
z"/>
<path fill="#5CAFA3" opacity="1.000000" stroke="none" 
	d="
M214.423492,269.169922 
	C214.744720,268.406586 215.187378,268.014038 215.630005,267.621460 
	C215.776108,269.033997 215.922211,270.446533 216.068314,271.859070 
	C215.857208,271.905731 215.646088,271.952423 215.434967,271.999115 
	C215.138290,271.179657 214.841614,270.360199 214.423492,269.169922 
z"/>
<path fill="#6AADB0" opacity="1.000000" stroke="none" 
	d="
M331.176880,269.182983 
	C331.645355,268.710876 331.963379,268.692505 332.523804,268.820007 
	C332.480957,270.080475 332.201385,271.293915 331.921814,272.507355 
	C331.669464,272.510437 331.417114,272.513550 331.164734,272.516663 
	C331.116730,271.523712 331.068726,270.530762 331.176880,269.182983 
z"/>
<path fill="#67BE99" opacity="1.000000" stroke="none" 
	d="
M79.539169,263.225677 
	C79.879883,263.360199 80.086998,263.842102 80.356110,264.584045 
	C80.418114,264.844147 80.043732,264.932098 79.856705,264.974060 
	C79.581635,264.535034 79.493599,264.054047 79.539169,263.225677 
z"/>
<path fill="#67BE99" opacity="1.000000" stroke="none" 
	d="
M80.008698,273.715820 
	C80.024887,273.973022 79.781273,274.192047 79.618835,274.170349 
	C79.358421,273.689392 79.260445,273.230194 79.279022,272.429749 
	C79.594559,272.545227 79.793526,273.001953 80.008698,273.715820 
z"/>
</svg>